<svg xmlns="http://www.w3.org/2000/svg" viewBox="0 0 400 320" fill="none">
  <!-- Background building -->
  <rect x="120" y="60" width="160" height="200" rx="8" fill="#e8f0fe"/>
  <rect x="120" y="60" width="160" height="200" rx="8" stroke="#3578e5" stroke-width="2"/>

  <!-- Building windows grid -->
  <rect x="140" y="85" width="24" height="20" rx="3" fill="#3578e5" opacity="0.25"/>
  <rect x="172" y="85" width="24" height="20" rx="3" fill="#3578e5" opacity="0.25"/>
  <rect x="204" y="85" width="24" height="20" rx="3" fill="#3578e5" opacity="0.35"/>
  <rect x="236" y="85" width="24" height="20" rx="3" fill="#3578e5" opacity="0.25"/>

  <rect x="140" y="115" width="24" height="20" rx="3" fill="#3578e5" opacity="0.35"/>
  <rect x="172" y="115" width="24" height="20" rx="3" fill="#3578e5" opacity="0.25"/>
  <rect x="204" y="115" width="24" height="20" rx="3" fill="#3578e5" opacity="0.25"/>
  <rect x="236" y="115" width="24" height="20" rx="3" fill="#3578e5" opacity="0.35"/>

  <rect x="140" y="145" width="24" height="20" rx="3" fill="#3578e5" opacity="0.25"/>
  <rect x="172" y="145" width="24" height="20" rx="3" fill="#3578e5" opacity="0.35"/>
  <rect x="204" y="145" width="24" height="20" rx="3" fill="#3578e5" opacity="0.25"/>
  <rect x="236" y="145" width="24" height="20" rx="3" fill="#3578e5" opacity="0.25"/>

  <rect x="140" y="175" width="24" height="20" rx="3" fill="#3578e5" opacity="0.35"/>
  <rect x="172" y="175" width="24" height="20" rx="3" fill="#3578e5" opacity="0.25"/>
  <rect x="204" y="175" width="24" height="20" rx="3" fill="#3578e5" opacity="0.35"/>
  <rect x="236" y="175" width="24" height="20" rx="3" fill="#3578e5" opacity="0.25"/>

  <!-- Building entrance -->
  <rect x="176" y="218" width="48" height="42" rx="4" fill="#3578e5" opacity="0.5"/>
  <rect x="190" y="218" width="20" height="42" rx="2" fill="#3578e5" opacity="0.7"/>

  <!-- Roof accent -->
  <rect x="160" y="55" width="80" height="8" rx="4" fill="#3578e5"/>

  <!-- Document/clipboard floating left -->
  <g transform="translate(40, 100)">
    <rect width="56" height="68" rx="6" fill="white" stroke="#3578e5" stroke-width="1.5"/>
    <rect x="8" y="12" width="40" height="3" rx="1.5" fill="#3578e5" opacity="0.4"/>
    <rect x="8" y="20" width="32" height="3" rx="1.5" fill="#3578e5" opacity="0.3"/>
    <rect x="8" y="28" width="36" height="3" rx="1.5" fill="#3578e5" opacity="0.4"/>
    <rect x="8" y="36" width="28" height="3" rx="1.5" fill="#3578e5" opacity="0.3"/>
    <rect x="8" y="48" width="18" height="12" rx="2" fill="#3578e5" opacity="0.15"/>
    <rect x="30" y="48" width="18" height="12" rx="2" fill="#3578e5" opacity="0.15"/>
    <!-- Clip -->
    <rect x="18" y="-4" width="20" height="10" rx="3" fill="#3578e5" opacity="0.6"/>
  </g>

  <!-- Chart floating right -->
  <g transform="translate(304, 90)">
    <rect width="60" height="60" rx="6" fill="white" stroke="#3578e5" stroke-width="1.5"/>
    <rect x="10" y="38" width="8" height="14" rx="2" fill="#3578e5" opacity="0.3"/>
    <rect x="22" y="28" width="8" height="24" rx="2" fill="#3578e5" opacity="0.5"/>
    <rect x="34" y="18" width="8" height="34" rx="2" fill="#3578e5" opacity="0.4"/>
    <rect x="46" y="24" width="8" height="28" rx="2" fill="#3578e5" opacity="0.6"/>
  </g>

  <!-- Gear floating right-bottom -->
  <g transform="translate(320, 185)">
    <circle cx="20" cy="20" r="16" fill="white" stroke="#3578e5" stroke-width="1.5"/>
    <circle cx="20" cy="20" r="7" fill="none" stroke="#3578e5" stroke-width="2" opacity="0.5"/>
    <rect x="17" y="0" width="6" height="8" rx="2" fill="#3578e5" opacity="0.4"/>
    <rect x="17" y="32" width="6" height="8" rx="2" fill="#3578e5" opacity="0.4"/>
    <rect x="0" y="17" width="8" height="6" rx="2" fill="#3578e5" opacity="0.4"/>
    <rect x="32" y="17" width="8" height="6" rx="2" fill="#3578e5" opacity="0.4"/>
  </g>

  <!-- People icon floating left-bottom -->
  <g transform="translate(45, 200)">
    <circle cx="20" cy="12" r="8" fill="#3578e5" opacity="0.3"/>
    <ellipse cx="20" cy="32" rx="14" ry="10" fill="#3578e5" opacity="0.2"/>
    <circle cx="38" cy="14" r="6" fill="#3578e5" opacity="0.2"/>
    <ellipse cx="38" cy="30" rx="10" ry="8" fill="#3578e5" opacity="0.15"/>
  </g>

  <!-- Ground line -->
  <line x1="60" y1="260" x2="340" y2="260" stroke="#3578e5" stroke-width="1.5" opacity="0.2"/>

  <!-- Small decorative dots -->
  <circle cx="100" cy="75" r="3" fill="#3578e5" opacity="0.15"/>
  <circle cx="310" cy="70" r="4" fill="#3578e5" opacity="0.12"/>
  <circle cx="85" cy="260" r="2" fill="#3578e5" opacity="0.2"/>
  <circle cx="330" cy="255" r="3" fill="#3578e5" opacity="0.15"/>
</svg>
